# xmcd CD database file
#
# Track frame offsets:
#	182
#	58892
#	76805
#	116632
#	146327
#	170772
#
# Disc length: 2708 seconds
#
# Revision: 0
# Processed by: cddbd v1.5.1PL0 Copyright (c) Steve Scherf et al.
# Submitted via: CDex 1.60beta1
#
DISCID=4e0a9206
DTITLE=Earl Fatha Hines - Grand Reunion [CD2]
DYEAR=1900
DGENRE=Jazz
TTITLE0=The Grand Terrace Medley
TTITLE1=The Man I Love
TTITLE2=Rosetta
TTITLE3=Undecided
TTITLE4=Just One More Chance
TTITLE5=Take The 'a' Train
EXTD=
EXTT0=
EXTT1=
EXTT2=
EXTT3=
EXTT4=
EXTT5=
PLAYORDER=
